<svg width="42" height="42" viewBox="-7 -7 56 56" fill="none" xmlns="http://www.w3.org/2000/svg">
<path d="M35.5834 0.166748H6.41675C4.75915 0.166748 3.16943 0.825229 1.99733 1.99733C0.825229 3.16943 0.166748 4.75915 0.166748 6.41675V35.5834C0.166748 37.241 0.825229 38.8307 1.99733 40.0028C3.16943 41.1749 4.75915 41.8334 6.41675 41.8334H35.5834C35.9261 41.8286 36.2677 41.7938 36.6043 41.7293L37.2293 41.5834H37.3751H37.4793L38.2501 41.2918L38.5209 41.1459C38.7293 41.0209 38.9584 40.9168 39.1667 40.7709C39.4449 40.5662 39.7094 40.3435 39.9584 40.1043L40.1043 39.9168C40.3088 39.7095 40.4969 39.4866 40.6668 39.2501L40.8543 38.9792C40.9998 38.7473 41.1252 38.5034 41.2292 38.2501C41.2864 38.1501 41.3352 38.0456 41.3751 37.9376C41.4793 37.6876 41.5418 37.4168 41.6251 37.1459V36.8334C41.7432 36.4263 41.8131 36.0068 41.8334 35.5834V6.41675C41.8334 4.75915 41.1749 3.16943 40.0028 1.99733C38.8307 0.825229 37.241 0.166748 35.5834 0.166748ZM6.41675 37.6668C5.86421 37.6668 5.33431 37.4473 4.94361 37.0566C4.55291 36.6659 4.33342 36.136 4.33342 35.5834V26.6042L11.1876 19.7292C11.3813 19.534 11.6117 19.379 11.8655 19.2732C12.1194 19.1675 12.3917 19.113 12.6667 19.113C12.9418 19.113 13.2141 19.1675 13.468 19.2732C13.7218 19.379 13.9522 19.534 14.1459 19.7292L32.0626 37.6668H6.41675ZM37.6668 35.5834C37.6648 35.8403 37.6153 36.0945 37.5209 36.3334C37.4733 36.435 37.4176 36.5325 37.3543 36.6251C37.2985 36.7133 37.2358 36.7969 37.1668 36.8751L26.0209 25.7293L27.8542 23.8959C28.0479 23.7006 28.2783 23.5457 28.5322 23.4399C28.7861 23.3341 29.0584 23.2797 29.3334 23.2797C29.6084 23.2797 29.8807 23.3341 30.1346 23.4399C30.3885 23.5457 30.6189 23.7006 30.8126 23.8959L37.6668 30.7709V35.5834ZM37.6668 24.8751L33.7501 21.0001C32.5578 19.8688 30.977 19.2382 29.3334 19.2382C27.6899 19.2382 26.109 19.8688 24.9167 21.0001L23.0834 22.8334L17.0834 16.8334C15.8912 15.7021 14.3103 15.0715 12.6667 15.0715C11.0232 15.0715 9.44233 15.7021 8.25008 16.8334L4.33342 20.7084V6.41675C4.33342 5.86421 4.55291 5.33431 4.94361 4.94361C5.33431 4.55291 5.86421 4.33342 6.41675 4.33342H35.5834C36.136 4.33342 36.6659 4.55291 37.0566 4.94361C37.4473 5.33431 37.6668 5.86421 37.6668 6.41675V24.8751Z" fill="black"/>
</svg>
