<svg width="42" height="36" viewBox="-7 -5 56 45" fill="none" xmlns="http://www.w3.org/2000/svg">
<path d="M35.5834 6.54155H32.9167L32.2501 4.45822C31.8179 3.23578 31.0162 2.17802 29.9561 1.43147C28.896 0.684922 27.63 0.286552 26.3334 0.29155H15.6667C14.3575 0.294 13.082 0.707557 12.0204 1.47385C10.9588 2.24015 10.1647 3.32049 9.75008 4.56238L9.08342 6.64572H6.41675C4.75914 6.64572 3.16943 7.3042 1.99733 8.4763C0.825228 9.6484 0.166748 11.2381 0.166748 12.8957V29.5624C0.166748 31.22 0.825228 32.8097 1.99733 33.9818C3.16943 35.1539 4.75914 35.8124 6.41675 35.8124H35.5834C37.241 35.8124 38.8307 35.1539 40.0028 33.9818C41.1749 32.8097 41.8334 31.22 41.8334 29.5624V12.8957C41.8472 12.0662 41.6958 11.2423 41.3879 10.4719C41.08 9.7016 40.6218 9.00025 40.0401 8.40881C39.4583 7.81736 38.7646 7.34765 37.9995 7.02707C37.2343 6.70648 36.413 6.54144 35.5834 6.54155ZM37.6667 29.4582C37.6667 30.0107 37.4473 30.5407 37.0566 30.9314C36.6659 31.3221 36.1359 31.5415 35.5834 31.5415H6.41675C5.86421 31.5415 5.33431 31.3221 4.94361 30.9314C4.55291 30.5407 4.33341 30.0107 4.33341 29.4582V12.7915C4.33341 12.239 4.55291 11.7091 4.94361 11.3184C5.33431 10.9277 5.86421 10.7082 6.41675 10.7082H10.5834C11.0377 10.7319 11.4873 10.6063 11.8635 10.3505C12.2397 10.0947 12.5218 9.72276 12.6667 9.29155L13.7917 5.87488C13.9315 5.46109 14.1978 5.10169 14.5529 4.84747C14.9081 4.59326 15.3342 4.45709 15.7709 4.45822H26.4376C26.8743 4.45709 27.3004 4.59326 27.6556 4.84747C28.0107 5.10169 28.277 5.46109 28.4167 5.87488L29.5417 9.29155C29.6754 9.68894 29.9259 10.0367 30.2604 10.2895C30.595 10.5422 30.998 10.6882 31.4167 10.7082H35.5834C36.1359 10.7082 36.6659 10.9277 37.0566 11.3184C37.4473 11.7091 37.6667 12.239 37.6667 12.7915V29.4582ZM21.0001 10.7082C19.3519 10.7082 17.7407 11.197 16.3703 12.1126C14.9999 13.0283 13.9318 14.3298 13.3011 15.8525C12.6704 17.3752 12.5053 19.0508 12.8269 20.6673C13.1484 22.2838 13.9421 23.7687 15.1075 24.9341C16.273 26.0995 17.7578 26.8932 19.3743 27.2148C20.9908 27.5363 22.6664 27.3713 24.1891 26.7405C25.7118 26.1098 27.0133 25.0417 27.929 23.6713C28.8447 22.3009 29.3334 20.6897 29.3334 19.0415C29.3334 16.8314 28.4554 14.7118 26.8926 13.149C25.3298 11.5862 23.2102 10.7082 21.0001 10.7082ZM21.0001 23.2082C20.176 23.2082 19.3704 22.9638 18.6852 22.506C18 22.0482 17.4659 21.3974 17.1506 20.6361C16.8352 19.8747 16.7527 19.0369 16.9135 18.2287C17.0742 17.4204 17.4711 16.678 18.0538 16.0953C18.6365 15.5126 19.379 15.1157 20.1872 14.9549C20.9955 14.7942 21.8332 14.8767 22.5946 15.1921C23.356 15.5074 24.0067 16.0415 24.4645 16.7267C24.9224 17.4119 25.1667 18.2175 25.1667 19.0415C25.1667 20.1466 24.7278 21.2064 23.9464 21.9878C23.165 22.7692 22.1052 23.2082 21.0001 23.2082Z" fill="black"/>
</svg>
